<svg width="12" height="8" viewBox="0 0 12 8" fill="none" xmlns="http://www.w3.org/2000/svg">
<path d="M5.76006 7.44001C5.44244 7.4404 5.14004 7.30398 4.93014 7.06561L0.22086 1.71265C-0.0887059 1.34373 -0.0471378 0.795142 0.314484 0.477077C0.676106 0.159012 1.22551 0.187806 1.5519 0.541929L5.66982 5.22289C5.69261 5.24888 5.72549 5.26379 5.76006 5.26379C5.79463 5.26379 5.82752 5.24888 5.8503 5.22289L9.96822 0.541929C10.175 0.295528 10.499 0.180441 10.8148 0.241204C11.1307 0.301967 11.3889 0.529046 11.4895 0.834571C11.59 1.1401 11.5173 1.47613 11.2993 1.71265L6.59142 7.06369C6.38116 7.30264 6.07835 7.43971 5.76006 7.44001Z" fill="black"/>
</svg>
